<?xml version="1.0" encoding="UTF-8" standalone="no"?>
<!-- Created with Inkscape (http://www.inkscape.org/) -->

<svg
   xmlns:dc="http://purl.org/dc/elements/1.1/"
   xmlns:cc="http://creativecommons.org/ns#"
   xmlns:rdf="http://www.w3.org/1999/02/22-rdf-syntax-ns#"
   xmlns:svg="http://www.w3.org/2000/svg"
   xmlns="http://www.w3.org/2000/svg"
   xmlns:sodipodi="http://sodipodi.sourceforge.net/DTD/sodipodi-0.dtd"
   xmlns:inkscape="http://www.inkscape.org/namespaces/inkscape"
   width="200"
   height="200"
   id="svg2"
   version="1.1"
   inkscape:version="0.48.2 r9819"
   style="display:inline"
   sodipodi:docname="emergenesis_brand.svg"
   inkscape:export-filename="/home/joshua/Development/repos/emergenesis-creative/emergenesis-brand/emergenesis_boxed_logo.png"
   inkscape:export-xdpi="112.5"
   inkscape:export-ydpi="112.5">
  <defs
     id="defs4" />
  <sodipodi:namedview
     id="base"
     pagecolor="#ffffff"
     bordercolor="#666666"
     borderopacity="1.0"
     inkscape:pageopacity="1"
     inkscape:pageshadow="2"
     inkscape:zoom="1.4566077"
     inkscape:cx="59.010384"
     inkscape:cy="99.999999"
     inkscape:document-units="px"
     inkscape:current-layer="layer3"
     showgrid="false"
     inkscape:window-width="1366"
     inkscape:window-height="716"
     inkscape:window-x="0"
     inkscape:window-y="36"
     inkscape:window-maximized="0"
     fit-margin-top="0"
     fit-margin-left="0"
     fit-margin-right="0.6"
     fit-margin-bottom="0"
     showborder="true" />
  <metadata
     id="metadata7">
    <rdf:RDF>
      <cc:Work
         rdf:about="">
        <dc:format>image/svg+xml</dc:format>
        <dc:type
           rdf:resource="http://purl.org/dc/dcmitype/StillImage" />
        <dc:title></dc:title>
      </cc:Work>
    </rdf:RDF>
  </metadata>
  <g
     inkscape:groupmode="layer"
     id="layer3"
     inkscape:label="chevron"
     style="display:inline"
     transform="translate(208.5231,-71.823288)">
    <rect
       style="fill:#ad235e;fill-opacity:1;stroke:none;display:inline"
       id="rect3932"
       width="200"
       height="200"
       x="-208.5231"
       y="71.823288"
       ry="40" />
  </g>
  <g
     inkscape:label="Outer Dots"
     inkscape:groupmode="layer"
     id="layer1"
     transform="translate(-14.993757,-458.69689)"
     style="display:inline">
    <path
       transform="matrix(0.59684653,0,0,0.59684653,134.71041,432.15912)"
       sodipodi:type="arc"
       style="fill:#bdd8da;fill-opacity:1;fill-rule:evenodd;stroke:none;display:inline"
       id="path2985-4-1-7-2-9-6-1"
       sodipodi:cx="83.337585"
       sodipodi:cy="210.22887"
       sodipodi:rx="20.708128"
       sodipodi:ry="20.708128"
       d="m 104.04571,210.22887 a 20.708128,20.708128 0 1 1 -41.416253,0 20.708128,20.708128 0 1 1 41.416253,0 z" />
    <path
       transform="matrix(0.59684653,0,0,0.59684653,113.62082,382.70871)"
       sodipodi:type="arc"
       style="fill:#7d99cf;fill-opacity:1;fill-rule:evenodd;stroke:none;display:inline"
       id="path2985-4-1"
       sodipodi:cx="83.337585"
       sodipodi:cy="210.22887"
       sodipodi:rx="20.708128"
       sodipodi:ry="20.708128"
       d="m 104.04571,210.22887 a 20.708128,20.708128 0 1 1 -41.416253,0 20.708128,20.708128 0 1 1 41.416253,0 z" />
    <path
       transform="matrix(0.59684653,0,0,0.59684653,113.6087,482.1882)"
       sodipodi:type="arc"
       style="fill:#7d99cf;fill-opacity:1;fill-rule:evenodd;stroke:none;display:inline"
       id="path2985-4-1-7"
       sodipodi:cx="83.337585"
       sodipodi:cy="210.22887"
       sodipodi:rx="20.708128"
       sodipodi:ry="20.708128"
       d="m 104.04571,210.22887 a 20.708128,20.708128 0 1 1 -41.416253,0 20.708128,20.708128 0 1 1 41.416253,0 z" />
    <path
       transform="matrix(0.59684653,0,0,0.59684653,14.732107,482.1882)"
       sodipodi:type="arc"
       style="fill:#7d99cf;fill-opacity:1;fill-rule:evenodd;stroke:none;display:inline"
       id="path2985-4-1-7-2"
       sodipodi:cx="83.337585"
       sodipodi:cy="210.22887"
       sodipodi:rx="20.708128"
       sodipodi:ry="20.708128"
       d="m 104.04571,210.22887 a 20.708128,20.708128 0 1 1 -41.416253,0 20.708128,20.708128 0 1 1 41.416253,0 z" />
    <path
       transform="matrix(0.59684653,0,0,0.59684653,15.322896,383.31161)"
       sodipodi:type="arc"
       style="fill:#7d99cf;fill-opacity:1;fill-rule:evenodd;stroke:none;display:inline"
       id="path2985-4-1-7-2-9"
       sodipodi:cx="83.337585"
       sodipodi:cy="210.22887"
       sodipodi:rx="20.708128"
       sodipodi:ry="20.708128"
       d="m 104.04571,210.22887 a 20.708128,20.708128 0 1 1 -41.416253,0 20.708128,20.708128 0 1 1 41.416253,0 z" />
    <path
       transform="matrix(0.59684653,0,0,0.59684653,64.36735,363.39147)"
       sodipodi:type="arc"
       style="fill:#bdd8da;fill-opacity:1;fill-rule:evenodd;stroke:none;display:inline"
       id="path2985-4-1-7-2-9-6"
       sodipodi:cx="83.337585"
       sodipodi:cy="210.22887"
       sodipodi:rx="20.708128"
       sodipodi:ry="20.708128"
       d="m 104.04571,210.22887 a 20.708128,20.708128 0 1 1 -41.416253,0 20.708128,20.708128 0 1 1 41.416253,0 z" />
    <path
       transform="matrix(0.59684653,0,0,0.59684653,-4.8668479,432.62567)"
       sodipodi:type="arc"
       style="fill:#bdd8da;fill-opacity:1;fill-rule:evenodd;stroke:none;display:inline"
       id="path2985-4-1-7-2-9-6-1-5"
       sodipodi:cx="83.337585"
       sodipodi:cy="210.22887"
       sodipodi:rx="20.708128"
       sodipodi:ry="20.708128"
       d="m 104.04571,210.22887 a 20.708128,20.708128 0 1 1 -41.416253,0 20.708128,20.708128 0 1 1 41.416253,0 z" />
    <path
       transform="matrix(0.59684653,0,0,0.59684653,64.36735,503.05357)"
       sodipodi:type="arc"
       style="fill:#bdd8da;fill-opacity:1;fill-rule:evenodd;stroke:none;display:inline"
       id="path2985-4-1-7-2-9-6-1-5-2"
       sodipodi:cx="83.337585"
       sodipodi:cy="210.22887"
       sodipodi:rx="20.708128"
       sodipodi:ry="20.708128"
       d="m 104.04571,210.22887 a 20.708128,20.708128 0 1 1 -41.416253,0 20.708128,20.708128 0 1 1 41.416253,0 z" />
  </g>
  <g
     inkscape:groupmode="layer"
     id="layer4"
     inkscape:label="Inner Dots"
     style="display:inline"
     transform="translate(-14.993757,-150.42917)">
    <path
       transform="matrix(0.32456253,0,0,0.32456253,126.1786,182.36069)"
       sodipodi:type="arc"
       style="fill:#dffef0;fill-opacity:1;fill-rule:evenodd;stroke:none;display:inline"
       id="path2985-4-1-7-2-9-6-2-5-4-8"
       sodipodi:cx="83.337585"
       sodipodi:cy="210.22887"
       sodipodi:rx="20.708128"
       sodipodi:ry="20.708128"
       d="m 104.04571,210.22887 a 20.708128,20.708128 0 1 1 -41.416253,0 20.708128,20.708128 0 1 1 41.416253,0 z" />
    <path
       transform="matrix(0.32456253,0,0,0.32456253,115.44073,155.26924)"
       sodipodi:type="arc"
       style="fill:#dffef0;fill-opacity:1;fill-rule:evenodd;stroke:none;display:inline"
       id="path2985-4-1-7-2-9-6-2-5"
       sodipodi:cx="83.337585"
       sodipodi:cy="210.22887"
       sodipodi:rx="20.708128"
       sodipodi:ry="20.708128"
       d="m 104.04571,210.22887 a 20.708128,20.708128 0 1 1 -41.416253,0 20.708128,20.708128 0 1 1 41.416253,0 z" />
    <path
       transform="matrix(0.32456253,0,0,0.32456253,115.47586,209.30075)"
       sodipodi:type="arc"
       style="fill:#dffef0;fill-opacity:1;fill-rule:evenodd;stroke:none;display:inline"
       id="path2985-4-1-7-2-9-6-2-5-4"
       sodipodi:cx="83.337585"
       sodipodi:cy="210.22887"
       sodipodi:rx="20.708128"
       sodipodi:ry="20.708128"
       d="m 104.04571,210.22887 a 20.708128,20.708128 0 1 1 -41.416253,0 20.708128,20.708128 0 1 1 41.416253,0 z" />
    <path
       transform="matrix(0.32456253,0,0,0.32456253,60.901614,154.98458)"
       sodipodi:type="arc"
       style="fill:#dffef0;fill-opacity:1;fill-rule:evenodd;stroke:none;display:inline"
       id="path2985-4-1-7-2-9-6-2"
       sodipodi:cx="83.337585"
       sodipodi:cy="210.22887"
       sodipodi:rx="20.708128"
       sodipodi:ry="20.708128"
       d="m 104.04571,210.22887 a 20.708128,20.708128 0 1 1 -41.416253,0 20.708128,20.708128 0 1 1 41.416253,0 z" />
    <path
       transform="matrix(0.32456253,0,0,0.32456253,60.920493,209.08109)"
       sodipodi:type="arc"
       style="fill:#dffef0;fill-opacity:1;fill-rule:evenodd;stroke:none;display:inline"
       id="path2985-4-1-7-2-9-6-2-1"
       sodipodi:cx="83.337585"
       sodipodi:cy="210.22887"
       sodipodi:rx="20.708128"
       sodipodi:ry="20.708128"
       d="m 104.04571,210.22887 a 20.708128,20.708128 0 1 1 -41.416253,0 20.708128,20.708128 0 1 1 41.416253,0 z" />
    <path
       transform="matrix(0.32456253,0,0,0.32456253,49.712397,182.36069)"
       sodipodi:type="arc"
       style="fill:#dffef0;fill-opacity:1;fill-rule:evenodd;stroke:none;display:inline"
       id="path2985-4-1-7-2-9-6-2-1-1"
       sodipodi:cx="83.337585"
       sodipodi:cy="210.22887"
       sodipodi:rx="20.708128"
       sodipodi:ry="20.708128"
       d="m 104.04571,210.22887 a 20.708128,20.708128 0 1 1 -41.416253,0 20.708128,20.708128 0 1 1 41.416253,0 z" />
    <path
       transform="matrix(0.32456253,0,0,0.32456253,87.880192,144.00134)"
       sodipodi:type="arc"
       style="fill:#dffef0;fill-opacity:1;fill-rule:evenodd;stroke:none;display:inline"
       id="path2985-4-1-7-2-9-6-2-5-4-8-6"
       sodipodi:cx="83.337585"
       sodipodi:cy="210.22887"
       sodipodi:rx="20.708128"
       sodipodi:ry="20.708128"
       d="m 104.04571,210.22887 a 20.708128,20.708128 0 1 1 -41.416253,0 20.708128,20.708128 0 1 1 41.416253,0 z" />
    <path
       transform="matrix(0.32456253,0,0,0.32456253,87.880192,220.39217)"
       sodipodi:type="arc"
       style="fill:#dffef0;fill-opacity:1;fill-rule:evenodd;stroke:none;display:inline"
       id="path2985-4-1-7-2-9-6-2-5-4-8-6-2"
       sodipodi:cx="83.337585"
       sodipodi:cy="210.22887"
       sodipodi:rx="20.708128"
       sodipodi:ry="20.708128"
       d="m 104.04571,210.22887 a 20.708128,20.708128 0 1 1 -41.416253,0 20.708128,20.708128 0 1 1 41.416253,0 z" />
  </g>
</svg>
