<?xml version="1.0" encoding="UTF-8" standalone="no"?>
<!-- Created with Inkscape (http://www.inkscape.org/) -->

<svg
   xmlns:dc="http://purl.org/dc/elements/1.1/"
   xmlns:cc="http://creativecommons.org/ns#"
   xmlns:rdf="http://www.w3.org/1999/02/22-rdf-syntax-ns#"
   xmlns:svg="http://www.w3.org/2000/svg"
   xmlns="http://www.w3.org/2000/svg"
   xmlns:sodipodi="http://sodipodi.sourceforge.net/DTD/sodipodi-0.dtd"
   xmlns:inkscape="http://www.inkscape.org/namespaces/inkscape"
   width="1168.9159"
   height="200"
   id="svg2"
   version="1.1"
   inkscape:version="0.48.2 r9819"
   style="display:inline"
   sodipodi:docname="emergenesis_logo_project_of.svg"
   inkscape:export-filename="/home/joshua/Development/repos/citeplasm.org/themes/citeplasm/media/proj_of_em.png"
   inkscape:export-xdpi="15.67"
   inkscape:export-ydpi="15.67">
  <defs
     id="defs4" />
  <sodipodi:namedview
     id="base"
     pagecolor="#ffffff"
     bordercolor="#666666"
     borderopacity="1.0"
     inkscape:pageopacity="0.0"
     inkscape:pageshadow="2"
     inkscape:zoom="0.81484375"
     inkscape:cx="576.69566"
     inkscape:cy="-54.918789"
     inkscape:document-units="px"
     inkscape:current-layer="layer2"
     showgrid="false"
     inkscape:window-width="1366"
     inkscape:window-height="716"
     inkscape:window-x="0"
     inkscape:window-y="36"
     inkscape:window-maximized="0"
     fit-margin-top="0"
     fit-margin-left="0"
     fit-margin-right="0"
     fit-margin-bottom="0" />
  <metadata
     id="metadata7">
    <rdf:RDF>
      <cc:Work
         rdf:about="">
        <dc:format>image/svg+xml</dc:format>
        <dc:type
           rdf:resource="http://purl.org/dc/dcmitype/StillImage" />
        <dc:title></dc:title>
      </cc:Work>
    </rdf:RDF>
  </metadata>
  <g
     inkscape:label="Outer Dots"
     inkscape:groupmode="layer"
     id="layer1"
     transform="translate(-7.8524594,-527.34879)"
     style="display:inline" />
  <g
     inkscape:groupmode="layer"
     id="layer4"
     inkscape:label="Inner Dots"
     style="display:inline"
     transform="translate(-7.8524594,-219.08108)" />
  <g
     inkscape:groupmode="layer"
     id="layer2"
     inkscape:label="emergenesis"
     style="display:inline"
     transform="translate(-7.8524594,-219.08108)">
    <text
       xml:space="preserve"
       style="font-size:136.49467468000000281px;font-style:normal;font-variant:normal;font-weight:normal;font-stretch:normal;text-align:start;line-height:125%;letter-spacing:0px;word-spacing:0px;writing-mode:lr-tb;text-anchor:start;fill:#333333;fill-opacity:1;stroke:none;font-family:Sans;-inkscape-font-specification:Sans"
       x="238.87604"
       y="376.49362"
       id="text3021"
       sodipodi:linespacing="125%"
       inkscape:export-filename="/home/joshua/Development/repos/citeplasm.org/images/proj_of_em.png"
       inkscape:export-xdpi="19.162769"
       inkscape:export-ydpi="19.162769"><tspan
         sodipodi:role="line"
         id="tspan3023"
         x="238.87604"
         y="376.49362"
         style="font-size:136.49467468000000281px;font-style:normal;font-variant:normal;font-weight:normal;font-stretch:normal;text-align:start;line-height:125%;letter-spacing:6.83384942999999989;writing-mode:lr-tb;text-anchor:start;fill:#333333;fill-opacity:1;stroke:none;font-family:Sans;-inkscape-font-specification:Sans">emergenesis</tspan></text>
    <text
       xml:space="preserve"
       style="font-size:136.49467468000000281px;font-style:normal;font-variant:normal;font-weight:normal;font-stretch:normal;text-align:start;line-height:125%;letter-spacing:0px;word-spacing:0px;writing-mode:lr-tb;text-anchor:start;fill:#333333;fill-opacity:1;stroke:none;display:inline;font-family:Sans;-inkscape-font-specification:Sans"
       x="243.40431"
       y="275.63028"
       id="text3021-7"
       sodipodi:linespacing="125%"
       inkscape:export-filename="/home/joshua/Development/repos/citeplasm.org/images/proj_of_em.png"
       inkscape:export-xdpi="19.162769"
       inkscape:export-ydpi="19.162769"><tspan
         sodipodi:role="line"
         id="tspan3023-9"
         x="243.40431"
         y="275.63028"
         style="font-size:50px;font-style:normal;font-variant:normal;font-weight:normal;font-stretch:normal;text-align:start;line-height:125%;letter-spacing:6.83384942999999989;writing-mode:lr-tb;text-anchor:start;fill:#333333;fill-opacity:1;stroke:none;font-family:Sans;-inkscape-font-specification:Sans">a project of</tspan></text>
    <g
       id="g3301"
       transform="translate(0,-1.6850638)">
      <rect
         ry="40"
         y="220.76614"
         x="7.8524594"
         height="200"
         width="200"
         id="rect3932"
         style="fill:#ad235e;fill-opacity:1;stroke:none;display:inline" />
      <path
         d="m 104.04571,210.22887 c 0,11.43678 -9.271341,20.70812 -20.708125,20.70812 -11.436783,0 -20.708128,-9.27134 -20.708128,-20.70812 0,-11.43679 9.271345,-20.70813 20.708128,-20.70813 11.436784,0 20.708125,9.27134 20.708125,20.70813 z"
         sodipodi:ry="20.708128"
         sodipodi:rx="20.708128"
         sodipodi:cy="210.22887"
         sodipodi:cx="83.337585"
         id="path2985-4-1-7-2-9-6-1-6"
         style="fill:#bdd8da;fill-opacity:1;fill-rule:evenodd;stroke:none;display:inline"
         sodipodi:type="arc"
         transform="matrix(0.59684653,0,0,0.59684653,127.56911,194.22835)" />
      <path
         d="m 104.04571,210.22887 c 0,11.43678 -9.271341,20.70812 -20.708125,20.70812 -11.436783,0 -20.708128,-9.27134 -20.708128,-20.70812 0,-11.43679 9.271345,-20.70813 20.708128,-20.70813 11.436784,0 20.708125,9.27134 20.708125,20.70813 z"
         sodipodi:ry="20.708128"
         sodipodi:rx="20.708128"
         sodipodi:cy="210.22887"
         sodipodi:cx="83.337585"
         id="path2985-4-1-0"
         style="fill:#7d99cf;fill-opacity:1;fill-rule:evenodd;stroke:none;display:inline"
         sodipodi:type="arc"
         transform="matrix(0.59684653,0,0,0.59684653,106.47953,144.77794)" />
      <path
         d="m 104.04571,210.22887 c 0,11.43678 -9.271341,20.70812 -20.708125,20.70812 -11.436783,0 -20.708128,-9.27134 -20.708128,-20.70812 0,-11.43679 9.271345,-20.70813 20.708128,-20.70813 11.436784,0 20.708125,9.27134 20.708125,20.70813 z"
         sodipodi:ry="20.708128"
         sodipodi:rx="20.708128"
         sodipodi:cy="210.22887"
         sodipodi:cx="83.337585"
         id="path2985-4-1-7-4"
         style="fill:#7d99cf;fill-opacity:1;fill-rule:evenodd;stroke:none;display:inline"
         sodipodi:type="arc"
         transform="matrix(0.59684653,0,0,0.59684653,106.46741,244.25743)" />
      <path
         d="m 104.04571,210.22887 c 0,11.43678 -9.271341,20.70812 -20.708125,20.70812 -11.436783,0 -20.708128,-9.27134 -20.708128,-20.70812 0,-11.43679 9.271345,-20.70813 20.708128,-20.70813 11.436784,0 20.708125,9.27134 20.708125,20.70813 z"
         sodipodi:ry="20.708128"
         sodipodi:rx="20.708128"
         sodipodi:cy="210.22887"
         sodipodi:cx="83.337585"
         id="path2985-4-1-7-2-8"
         style="fill:#7d99cf;fill-opacity:1;fill-rule:evenodd;stroke:none;display:inline"
         sodipodi:type="arc"
         transform="matrix(0.59684653,0,0,0.59684653,7.5908178,244.25743)" />
      <path
         d="m 104.04571,210.22887 c 0,11.43678 -9.271341,20.70812 -20.708125,20.70812 -11.436783,0 -20.708128,-9.27134 -20.708128,-20.70812 0,-11.43679 9.271345,-20.70813 20.708128,-20.70813 11.436784,0 20.708125,9.27134 20.708125,20.70813 z"
         sodipodi:ry="20.708128"
         sodipodi:rx="20.708128"
         sodipodi:cy="210.22887"
         sodipodi:cx="83.337585"
         id="path2985-4-1-7-2-9-7"
         style="fill:#7d99cf;fill-opacity:1;fill-rule:evenodd;stroke:none;display:inline"
         sodipodi:type="arc"
         transform="matrix(0.59684653,0,0,0.59684653,8.1816078,145.38084)" />
      <path
         d="m 104.04571,210.22887 c 0,11.43678 -9.271341,20.70812 -20.708125,20.70812 -11.436783,0 -20.708128,-9.27134 -20.708128,-20.70812 0,-11.43679 9.271345,-20.70813 20.708128,-20.70813 11.436784,0 20.708125,9.27134 20.708125,20.70813 z"
         sodipodi:ry="20.708128"
         sodipodi:rx="20.708128"
         sodipodi:cy="210.22887"
         sodipodi:cx="83.337585"
         id="path2985-4-1-7-2-9-6-4"
         style="fill:#bdd8da;fill-opacity:1;fill-rule:evenodd;stroke:none;display:inline"
         sodipodi:type="arc"
         transform="matrix(0.59684653,0,0,0.59684653,57.226058,125.4607)" />
      <path
         d="m 104.04571,210.22887 c 0,11.43678 -9.271341,20.70812 -20.708125,20.70812 -11.436783,0 -20.708128,-9.27134 -20.708128,-20.70812 0,-11.43679 9.271345,-20.70813 20.708128,-20.70813 11.436784,0 20.708125,9.27134 20.708125,20.70813 z"
         sodipodi:ry="20.708128"
         sodipodi:rx="20.708128"
         sodipodi:cy="210.22887"
         sodipodi:cx="83.337585"
         id="path2985-4-1-7-2-9-6-1-5-7"
         style="fill:#bdd8da;fill-opacity:1;fill-rule:evenodd;stroke:none;display:inline"
         sodipodi:type="arc"
         transform="matrix(0.59684653,0,0,0.59684653,-12.008142,194.6949)" />
      <path
         d="m 104.04571,210.22887 c 0,11.43678 -9.271341,20.70812 -20.708125,20.70812 -11.436783,0 -20.708128,-9.27134 -20.708128,-20.70812 0,-11.43679 9.271345,-20.70813 20.708128,-20.70813 11.436784,0 20.708125,9.27134 20.708125,20.70813 z"
         sodipodi:ry="20.708128"
         sodipodi:rx="20.708128"
         sodipodi:cy="210.22887"
         sodipodi:cx="83.337585"
         id="path2985-4-1-7-2-9-6-1-5-2-5"
         style="fill:#bdd8da;fill-opacity:1;fill-rule:evenodd;stroke:none;display:inline"
         sodipodi:type="arc"
         transform="matrix(0.59684653,0,0,0.59684653,57.226058,265.1228)" />
      <path
         d="m 104.04571,210.22887 c 0,11.43678 -9.271341,20.70812 -20.708125,20.70812 -11.436783,0 -20.708128,-9.27134 -20.708128,-20.70812 0,-11.43679 9.271345,-20.70813 20.708128,-20.70813 11.436784,0 20.708125,9.27134 20.708125,20.70813 z"
         sodipodi:ry="20.708128"
         sodipodi:rx="20.708128"
         sodipodi:cy="210.22887"
         sodipodi:cx="83.337585"
         id="path2985-4-1-7-2-9-6-2-5-4-8-3"
         style="fill:#dffef0;fill-opacity:1;fill-rule:evenodd;stroke:none;display:inline"
         sodipodi:type="arc"
         transform="matrix(0.32456253,0,0,0.32456253,119.0373,252.69764)" />
      <path
         d="m 104.04571,210.22887 c 0,11.43678 -9.271341,20.70812 -20.708125,20.70812 -11.436783,0 -20.708128,-9.27134 -20.708128,-20.70812 0,-11.43679 9.271345,-20.70813 20.708128,-20.70813 11.436784,0 20.708125,9.27134 20.708125,20.70813 z"
         sodipodi:ry="20.708128"
         sodipodi:rx="20.708128"
         sodipodi:cy="210.22887"
         sodipodi:cx="83.337585"
         id="path2985-4-1-7-2-9-6-2-5-40"
         style="fill:#dffef0;fill-opacity:1;fill-rule:evenodd;stroke:none;display:inline"
         sodipodi:type="arc"
         transform="matrix(0.32456253,0,0,0.32456253,108.29943,225.60619)" />
      <path
         d="m 104.04571,210.22887 c 0,11.43678 -9.271341,20.70812 -20.708125,20.70812 -11.436783,0 -20.708128,-9.27134 -20.708128,-20.70812 0,-11.43679 9.271345,-20.70813 20.708128,-20.70813 11.436784,0 20.708125,9.27134 20.708125,20.70813 z"
         sodipodi:ry="20.708128"
         sodipodi:rx="20.708128"
         sodipodi:cy="210.22887"
         sodipodi:cx="83.337585"
         id="path2985-4-1-7-2-9-6-2-5-4-7"
         style="fill:#dffef0;fill-opacity:1;fill-rule:evenodd;stroke:none;display:inline"
         sodipodi:type="arc"
         transform="matrix(0.32456253,0,0,0.32456253,108.33456,279.6377)" />
      <path
         d="m 104.04571,210.22887 c 0,11.43678 -9.271341,20.70812 -20.708125,20.70812 -11.436783,0 -20.708128,-9.27134 -20.708128,-20.70812 0,-11.43679 9.271345,-20.70813 20.708128,-20.70813 11.436784,0 20.708125,9.27134 20.708125,20.70813 z"
         sodipodi:ry="20.708128"
         sodipodi:rx="20.708128"
         sodipodi:cy="210.22887"
         sodipodi:cx="83.337585"
         id="path2985-4-1-7-2-9-6-2-9"
         style="fill:#dffef0;fill-opacity:1;fill-rule:evenodd;stroke:none;display:inline"
         sodipodi:type="arc"
         transform="matrix(0.32456253,0,0,0.32456253,53.760318,225.32153)" />
      <path
         d="m 104.04571,210.22887 c 0,11.43678 -9.271341,20.70812 -20.708125,20.70812 -11.436783,0 -20.708128,-9.27134 -20.708128,-20.70812 0,-11.43679 9.271345,-20.70813 20.708128,-20.70813 11.436784,0 20.708125,9.27134 20.708125,20.70813 z"
         sodipodi:ry="20.708128"
         sodipodi:rx="20.708128"
         sodipodi:cy="210.22887"
         sodipodi:cx="83.337585"
         id="path2985-4-1-7-2-9-6-2-1-8"
         style="fill:#dffef0;fill-opacity:1;fill-rule:evenodd;stroke:none;display:inline"
         sodipodi:type="arc"
         transform="matrix(0.32456253,0,0,0.32456253,53.779198,279.41804)" />
      <path
         d="m 104.04571,210.22887 c 0,11.43678 -9.271341,20.70812 -20.708125,20.70812 -11.436783,0 -20.708128,-9.27134 -20.708128,-20.70812 0,-11.43679 9.271345,-20.70813 20.708128,-20.70813 11.436784,0 20.708125,9.27134 20.708125,20.70813 z"
         sodipodi:ry="20.708128"
         sodipodi:rx="20.708128"
         sodipodi:cy="210.22887"
         sodipodi:cx="83.337585"
         id="path2985-4-1-7-2-9-6-2-1-1-1"
         style="fill:#dffef0;fill-opacity:1;fill-rule:evenodd;stroke:none;display:inline"
         sodipodi:type="arc"
         transform="matrix(0.32456253,0,0,0.32456253,42.571108,252.69764)" />
      <path
         d="m 104.04571,210.22887 c 0,11.43678 -9.271341,20.70812 -20.708125,20.70812 -11.436783,0 -20.708128,-9.27134 -20.708128,-20.70812 0,-11.43679 9.271345,-20.70813 20.708128,-20.70813 11.436784,0 20.708125,9.27134 20.708125,20.70813 z"
         sodipodi:ry="20.708128"
         sodipodi:rx="20.708128"
         sodipodi:cy="210.22887"
         sodipodi:cx="83.337585"
         id="path2985-4-1-7-2-9-6-2-5-4-8-6-8"
         style="fill:#dffef0;fill-opacity:1;fill-rule:evenodd;stroke:none;display:inline"
         sodipodi:type="arc"
         transform="matrix(0.32456253,0,0,0.32456253,80.738898,214.33829)" />
      <path
         d="m 104.04571,210.22887 c 0,11.43678 -9.271341,20.70812 -20.708125,20.70812 -11.436783,0 -20.708128,-9.27134 -20.708128,-20.70812 0,-11.43679 9.271345,-20.70813 20.708128,-20.70813 11.436784,0 20.708125,9.27134 20.708125,20.70813 z"
         sodipodi:ry="20.708128"
         sodipodi:rx="20.708128"
         sodipodi:cy="210.22887"
         sodipodi:cx="83.337585"
         id="path2985-4-1-7-2-9-6-2-5-4-8-6-2-7"
         style="fill:#dffef0;fill-opacity:1;fill-rule:evenodd;stroke:none;display:inline"
         sodipodi:type="arc"
         transform="matrix(0.32456253,0,0,0.32456253,80.738898,290.72912)" />
    </g>
  </g>
</svg>
