<?xml version="1.0" encoding="UTF-8" standalone="no"?>
<!-- Created with Inkscape (http://www.inkscape.org/) -->

<svg
   xmlns:dc="http://purl.org/dc/elements/1.1/"
   xmlns:cc="http://creativecommons.org/ns#"
   xmlns:rdf="http://www.w3.org/1999/02/22-rdf-syntax-ns#"
   xmlns:svg="http://www.w3.org/2000/svg"
   xmlns="http://www.w3.org/2000/svg"
   xmlns:sodipodi="http://sodipodi.sourceforge.net/DTD/sodipodi-0.dtd"
   xmlns:inkscape="http://www.inkscape.org/namespaces/inkscape"
   width="164.2964"
   height="164.38124"
   id="svg3038"
   version="1.1"
   inkscape:version="0.48.3.1 r9886"
   sodipodi:docname="New document 3">
  <defs
     id="defs3040" />
  <sodipodi:namedview
     id="base"
     pagecolor="#ffffff"
     bordercolor="#666666"
     borderopacity="1.0"
     inkscape:pageopacity="0.0"
     inkscape:pageshadow="2"
     inkscape:zoom="0.35"
     inkscape:cx="-119.35502"
     inkscape:cy="-149.23795"
     inkscape:document-units="px"
     inkscape:current-layer="layer1"
     showgrid="false"
     fit-margin-top="0"
     fit-margin-left="0"
     fit-margin-right="0"
     fit-margin-bottom="0"
     inkscape:window-width="838"
     inkscape:window-height="1016"
     inkscape:window-x="0"
     inkscape:window-y="16"
     inkscape:window-maximized="0" />
  <metadata
     id="metadata3043">
    <rdf:RDF>
      <cc:Work
         rdf:about="">
        <dc:format>image/svg+xml</dc:format>
        <dc:type
           rdf:resource="http://purl.org/dc/dcmitype/StillImage" />
        <dc:title></dc:title>
      </cc:Work>
    </rdf:RDF>
  </metadata>
  <g
     inkscape:label="Layer 1"
     inkscape:groupmode="layer"
     id="layer1"
     transform="translate(-214.99465,-218.74299)">
    <g
       style="display:inline"
       id="g3803"
       transform="translate(189.00221,-18.456843)"
       inkscape:export-filename="/home/joshua/Development/repos/emergenesis.com/public/images/emergenesis_logo.png"
       inkscape:export-xdpi="23.552834"
       inkscape:export-ydpi="23.552834">
      <path
         d="m 104.04571,210.22887 c 0,11.43678 -9.271341,20.70812 -20.708125,20.70812 -11.436783,0 -20.708128,-9.27134 -20.708128,-20.70812 0,-11.43679 9.271345,-20.70813 20.708128,-20.70813 11.436784,0 20.708125,9.27134 20.708125,20.70813 z"
         sodipodi:ry="20.708128"
         sodipodi:rx="20.708128"
         sodipodi:cy="210.22887"
         sodipodi:cx="83.337585"
         id="path2985-4-1-7-2-9-6-1"
         style="fill:#ad235e;fill-opacity:1;fill-rule:evenodd;stroke:none;display:inline"
         sodipodi:type="arc"
         transform="matrix(0.59684653,0,0,0.59684653,128.18953,192.85269)" />
      <path
         d="m 104.04571,210.22887 c 0,11.43678 -9.271341,20.70812 -20.708125,20.70812 -11.436783,0 -20.708128,-9.27134 -20.708128,-20.70812 0,-11.43679 9.271345,-20.70813 20.708128,-20.70813 11.436784,0 20.708125,9.27134 20.708125,20.70813 z"
         sodipodi:ry="20.708128"
         sodipodi:rx="20.708128"
         sodipodi:cy="210.22887"
         sodipodi:cx="83.337585"
         id="path2985-4-1"
         style="fill:#7d9c9f;fill-opacity:1;fill-rule:evenodd;stroke:none;display:inline"
         sodipodi:type="arc"
         transform="matrix(0.59684653,0,0,0.59684653,107.09994,143.40228)" />
      <path
         d="m 104.04571,210.22887 c 0,11.43678 -9.271341,20.70812 -20.708125,20.70812 -11.436783,0 -20.708128,-9.27134 -20.708128,-20.70812 0,-11.43679 9.271345,-20.70813 20.708128,-20.70813 11.436784,0 20.708125,9.27134 20.708125,20.70813 z"
         sodipodi:ry="20.708128"
         sodipodi:rx="20.708128"
         sodipodi:cy="210.22887"
         sodipodi:cx="83.337585"
         id="path2985-4-1-7"
         style="fill:#7d9c9f;fill-opacity:1;fill-rule:evenodd;stroke:none;display:inline"
         sodipodi:type="arc"
         transform="matrix(0.59684653,0,0,0.59684653,107.08782,242.88177)" />
      <path
         d="m 104.04571,210.22887 c 0,11.43678 -9.271341,20.70812 -20.708125,20.70812 -11.436783,0 -20.708128,-9.27134 -20.708128,-20.70812 0,-11.43679 9.271345,-20.70813 20.708128,-20.70813 11.436784,0 20.708125,9.27134 20.708125,20.70813 z"
         sodipodi:ry="20.708128"
         sodipodi:rx="20.708128"
         sodipodi:cy="210.22887"
         sodipodi:cx="83.337585"
         id="path2985-4-1-7-2"
         style="fill:#7d9c9f;fill-opacity:1;fill-rule:evenodd;stroke:none;display:inline"
         sodipodi:type="arc"
         transform="matrix(0.59684653,0,0,0.59684653,8.211225,242.88177)" />
      <path
         d="m 104.04571,210.22887 c 0,11.43678 -9.271341,20.70812 -20.708125,20.70812 -11.436783,0 -20.708128,-9.27134 -20.708128,-20.70812 0,-11.43679 9.271345,-20.70813 20.708128,-20.70813 11.436784,0 20.708125,9.27134 20.708125,20.70813 z"
         sodipodi:ry="20.708128"
         sodipodi:rx="20.708128"
         sodipodi:cy="210.22887"
         sodipodi:cx="83.337585"
         id="path2985-4-1-7-2-9"
         style="fill:#7d9c9f;fill-opacity:1;fill-rule:evenodd;stroke:none;display:inline"
         sodipodi:type="arc"
         transform="matrix(0.59684653,0,0,0.59684653,8.802014,144.00518)" />
      <path
         d="m 104.04571,210.22887 c 0,11.43678 -9.271341,20.70812 -20.708125,20.70812 -11.436783,0 -20.708128,-9.27134 -20.708128,-20.70812 0,-11.43679 9.271345,-20.70813 20.708128,-20.70813 11.436784,0 20.708125,9.27134 20.708125,20.70813 z"
         sodipodi:ry="20.708128"
         sodipodi:rx="20.708128"
         sodipodi:cy="210.22887"
         sodipodi:cx="83.337585"
         id="path2985-4-1-7-2-9-6"
         style="fill:#ad235e;fill-opacity:1;fill-rule:evenodd;stroke:none;display:inline"
         sodipodi:type="arc"
         transform="matrix(0.59684653,0,0,0.59684653,57.846468,124.08504)" />
      <path
         d="m 104.04571,210.22887 c 0,11.43678 -9.271341,20.70812 -20.708125,20.70812 -11.436783,0 -20.708128,-9.27134 -20.708128,-20.70812 0,-11.43679 9.271345,-20.70813 20.708128,-20.70813 11.436784,0 20.708125,9.27134 20.708125,20.70813 z"
         sodipodi:ry="20.708128"
         sodipodi:rx="20.708128"
         sodipodi:cy="210.22887"
         sodipodi:cx="83.337585"
         id="path2985-4-1-7-2-9-6-1-5"
         style="fill:#ad235e;fill-opacity:1;fill-rule:evenodd;stroke:none;display:inline"
         sodipodi:type="arc"
         transform="matrix(0.59684653,0,0,0.59684653,-11.38773,193.31923)" />
      <path
         d="m 104.04571,210.22887 c 0,11.43678 -9.271341,20.70812 -20.708125,20.70812 -11.436783,0 -20.708128,-9.27134 -20.708128,-20.70812 0,-11.43679 9.271345,-20.70813 20.708128,-20.70813 11.436784,0 20.708125,9.27134 20.708125,20.70813 z"
         sodipodi:ry="20.708128"
         sodipodi:rx="20.708128"
         sodipodi:cy="210.22887"
         sodipodi:cx="83.337585"
         id="path2985-4-1-7-2-9-6-1-5-2"
         style="fill:#ad235e;fill-opacity:1;fill-rule:evenodd;stroke:none;display:inline"
         sodipodi:type="arc"
         transform="matrix(0.59684653,0,0,0.59684653,57.846468,263.74713)" />
      <path
         d="m 104.04571,210.22887 c 0,11.43678 -9.271341,20.70812 -20.708125,20.70812 -11.436783,0 -20.708128,-9.27134 -20.708128,-20.70812 0,-11.43679 9.271345,-20.70813 20.708128,-20.70813 11.436784,0 20.708125,9.27134 20.708125,20.70813 z"
         sodipodi:ry="20.708128"
         sodipodi:rx="20.708128"
         sodipodi:cy="210.22887"
         sodipodi:cx="83.337585"
         id="path2985-4-1-7-2-9-6-2-5-4-8"
         style="fill:#bdd8da;fill-opacity:1;fill-rule:evenodd;stroke:none;display:inline"
         sodipodi:type="arc"
         transform="matrix(0.32456253,0,0,0.32456253,119.32549,251.32198)" />
      <path
         d="m 104.04571,210.22887 c 0,11.43678 -9.271341,20.70812 -20.708125,20.70812 -11.436783,0 -20.708128,-9.27134 -20.708128,-20.70812 0,-11.43679 9.271345,-20.70813 20.708128,-20.70813 11.436784,0 20.708125,9.27134 20.708125,20.70813 z"
         sodipodi:ry="20.708128"
         sodipodi:rx="20.708128"
         sodipodi:cy="210.22887"
         sodipodi:cx="83.337585"
         id="path2985-4-1-7-2-9-6-2-5"
         style="fill:#bdd8da;fill-opacity:1;fill-rule:evenodd;stroke:none;display:inline"
         sodipodi:type="arc"
         transform="matrix(0.32456253,0,0,0.32456253,108.58762,224.23053)" />
      <path
         d="m 104.04571,210.22887 c 0,11.43678 -9.271341,20.70812 -20.708125,20.70812 -11.436783,0 -20.708128,-9.27134 -20.708128,-20.70812 0,-11.43679 9.271345,-20.70813 20.708128,-20.70813 11.436784,0 20.708125,9.27134 20.708125,20.70813 z"
         sodipodi:ry="20.708128"
         sodipodi:rx="20.708128"
         sodipodi:cy="210.22887"
         sodipodi:cx="83.337585"
         id="path2985-4-1-7-2-9-6-2-5-4"
         style="fill:#bdd8da;fill-opacity:1;fill-rule:evenodd;stroke:none;display:inline"
         sodipodi:type="arc"
         transform="matrix(0.32456253,0,0,0.32456253,108.62275,278.26204)" />
      <path
         d="m 104.04571,210.22887 c 0,11.43678 -9.271341,20.70812 -20.708125,20.70812 -11.436783,0 -20.708128,-9.27134 -20.708128,-20.70812 0,-11.43679 9.271345,-20.70813 20.708128,-20.70813 11.436784,0 20.708125,9.27134 20.708125,20.70813 z"
         sodipodi:ry="20.708128"
         sodipodi:rx="20.708128"
         sodipodi:cy="210.22887"
         sodipodi:cx="83.337585"
         id="path2985-4-1-7-2-9-6-2"
         style="fill:#bdd8da;fill-opacity:1;fill-rule:evenodd;stroke:none;display:inline"
         sodipodi:type="arc"
         transform="matrix(0.32456253,0,0,0.32456253,54.048506,223.94587)" />
      <path
         d="m 104.04571,210.22887 c 0,11.43678 -9.271341,20.70812 -20.708125,20.70812 -11.436783,0 -20.708128,-9.27134 -20.708128,-20.70812 0,-11.43679 9.271345,-20.70813 20.708128,-20.70813 11.436784,0 20.708125,9.27134 20.708125,20.70813 z"
         sodipodi:ry="20.708128"
         sodipodi:rx="20.708128"
         sodipodi:cy="210.22887"
         sodipodi:cx="83.337585"
         id="path2985-4-1-7-2-9-6-2-1"
         style="fill:#bdd8da;fill-opacity:1;fill-rule:evenodd;stroke:none;display:inline"
         sodipodi:type="arc"
         transform="matrix(0.32456253,0,0,0.32456253,54.067385,278.04238)" />
      <path
         d="m 104.04571,210.22887 c 0,11.43678 -9.271341,20.70812 -20.708125,20.70812 -11.436783,0 -20.708128,-9.27134 -20.708128,-20.70812 0,-11.43679 9.271345,-20.70813 20.708128,-20.70813 11.436784,0 20.708125,9.27134 20.708125,20.70813 z"
         sodipodi:ry="20.708128"
         sodipodi:rx="20.708128"
         sodipodi:cy="210.22887"
         sodipodi:cx="83.337585"
         id="path2985-4-1-7-2-9-6-2-1-1"
         style="fill:#bdd8da;fill-opacity:1;fill-rule:evenodd;stroke:none;display:inline"
         sodipodi:type="arc"
         transform="matrix(0.32456253,0,0,0.32456253,42.859289,251.32198)" />
      <path
         d="m 104.04571,210.22887 c 0,11.43678 -9.271341,20.70812 -20.708125,20.70812 -11.436783,0 -20.708128,-9.27134 -20.708128,-20.70812 0,-11.43679 9.271345,-20.70813 20.708128,-20.70813 11.436784,0 20.708125,9.27134 20.708125,20.70813 z"
         sodipodi:ry="20.708128"
         sodipodi:rx="20.708128"
         sodipodi:cy="210.22887"
         sodipodi:cx="83.337585"
         id="path2985-4-1-7-2-9-6-2-5-4-8-6"
         style="fill:#bdd8da;fill-opacity:1;fill-rule:evenodd;stroke:none;display:inline"
         sodipodi:type="arc"
         transform="matrix(0.32456253,0,0,0.32456253,81.027084,212.96263)" />
      <path
         d="m 104.04571,210.22887 c 0,11.43678 -9.271341,20.70812 -20.708125,20.70812 -11.436783,0 -20.708128,-9.27134 -20.708128,-20.70812 0,-11.43679 9.271345,-20.70813 20.708128,-20.70813 11.436784,0 20.708125,9.27134 20.708125,20.70813 z"
         sodipodi:ry="20.708128"
         sodipodi:rx="20.708128"
         sodipodi:cy="210.22887"
         sodipodi:cx="83.337585"
         id="path2985-4-1-7-2-9-6-2-5-4-8-6-2"
         style="fill:#bdd8da;fill-opacity:1;fill-rule:evenodd;stroke:none;display:inline"
         sodipodi:type="arc"
         transform="matrix(0.32456253,0,0,0.32456253,81.027084,289.35346)" />
    </g>
  </g>
</svg>
