<?xml version="1.0" encoding="UTF-8" standalone="no"?>
<!-- Created with Inkscape (http://www.inkscape.org/) -->

<svg
   xmlns:dc="http://purl.org/dc/elements/1.1/"
   xmlns:cc="http://creativecommons.org/ns#"
   xmlns:rdf="http://www.w3.org/1999/02/22-rdf-syntax-ns#"
   xmlns:svg="http://www.w3.org/2000/svg"
   xmlns="http://www.w3.org/2000/svg"
   xmlns:sodipodi="http://sodipodi.sourceforge.net/DTD/sodipodi-0.dtd"
   xmlns:inkscape="http://www.inkscape.org/namespaces/inkscape"
   width="184.2964"
   height="184.38124"
   id="svg2"
   version="1.1"
   inkscape:version="0.48.2 r9819"
   style="display:inline"
   sodipodi:docname="emergenesis_logo_square_master.svg"
   inkscape:export-filename="/home/joshua/emergenesis.png"
   inkscape:export-xdpi="87.900002"
   inkscape:export-ydpi="87.900002">
  <defs
     id="defs4" />
  <sodipodi:namedview
     id="base"
     pagecolor="#ffffff"
     bordercolor="#666666"
     borderopacity="1.0"
     inkscape:pageopacity="0.0"
     inkscape:pageshadow="2"
     inkscape:zoom="1.4"
     inkscape:cx="172.2701"
     inkscape:cy="0.83248693"
     inkscape:document-units="px"
     inkscape:current-layer="layer8"
     showgrid="false"
     inkscape:window-width="1366"
     inkscape:window-height="736"
     inkscape:window-x="0"
     inkscape:window-y="16"
     inkscape:window-maximized="0"
     fit-margin-top="10"
     fit-margin-left="10"
     fit-margin-right="10"
     fit-margin-bottom="10" />
  <metadata
     id="metadata7">
    <rdf:RDF>
      <cc:Work
         rdf:about="">
        <dc:format>image/svg+xml</dc:format>
        <dc:type
           rdf:resource="http://purl.org/dc/dcmitype/StillImage" />
        <dc:title></dc:title>
      </cc:Work>
    </rdf:RDF>
  </metadata>
  <g
     inkscape:groupmode="layer"
     id="layer7"
     inkscape:label="Outer Dots - Hidden"
     style="display:inline"
     transform="translate(-15.992444,-209.19984)">
    <path
       transform="matrix(0.59684653,0,0,0.59684653,128.18953,174.85269)"
       sodipodi:type="arc"
       style="fill:#17a0e8;fill-opacity:1;fill-rule:evenodd;stroke:none;display:inline"
       id="path2985-4-1-7-2-9-6-1"
       sodipodi:cx="83.337585"
       sodipodi:cy="210.22887"
       sodipodi:rx="20.708128"
       sodipodi:ry="20.708128"
       d="m 104.04571,210.22887 c 0,11.43678 -9.271341,20.70812 -20.708125,20.70812 -11.436783,0 -20.708128,-9.27134 -20.708128,-20.70812 0,-11.43679 9.271345,-20.70813 20.708128,-20.70813 11.436784,0 20.708125,9.27134 20.708125,20.70813 z"
       inkscape:export-filename="/home/joshua/emergenesis.png"
       inkscape:export-xdpi="98.599998"
       inkscape:export-ydpi="98.599998" />
  </g>
  <g
     inkscape:label="Outer Dots"
     inkscape:groupmode="layer"
     id="layer1"
     transform="translate(-15.992444,-517.46755)"
     style="display:inline">
    <path
       transform="matrix(0.59684653,0,0,0.59684653,107.09994,433.66999)"
       sodipodi:type="arc"
       style="fill:#17a0e8;fill-opacity:1;fill-rule:evenodd;stroke:none;display:inline"
       id="path2985-4-1"
       sodipodi:cx="83.337585"
       sodipodi:cy="210.22887"
       sodipodi:rx="20.708128"
       sodipodi:ry="20.708128"
       d="m 104.04571,210.22887 c 0,11.43678 -9.271341,20.70812 -20.708125,20.70812 -11.436783,0 -20.708128,-9.27134 -20.708128,-20.70812 0,-11.43679 9.271345,-20.70813 20.708128,-20.70813 11.436784,0 20.708125,9.27134 20.708125,20.70813 z"
       inkscape:export-filename="/home/joshua/emergenesis.png"
       inkscape:export-xdpi="98.599998"
       inkscape:export-ydpi="98.599998" />
    <path
       transform="matrix(0.59684653,0,0,0.59684653,107.08782,533.14948)"
       sodipodi:type="arc"
       style="fill:#17a0e8;fill-opacity:1;fill-rule:evenodd;stroke:none;display:inline"
       id="path2985-4-1-7"
       sodipodi:cx="83.337585"
       sodipodi:cy="210.22887"
       sodipodi:rx="20.708128"
       sodipodi:ry="20.708128"
       d="m 104.04571,210.22887 c 0,11.43678 -9.271341,20.70812 -20.708125,20.70812 -11.436783,0 -20.708128,-9.27134 -20.708128,-20.70812 0,-11.43679 9.271345,-20.70813 20.708128,-20.70813 11.436784,0 20.708125,9.27134 20.708125,20.70813 z"
       inkscape:export-filename="/home/joshua/emergenesis.png"
       inkscape:export-xdpi="98.599998"
       inkscape:export-ydpi="98.599998" />
    <path
       transform="matrix(0.59684653,0,0,0.59684653,8.211225,533.14948)"
       sodipodi:type="arc"
       style="fill:#17a0e8;fill-opacity:1;fill-rule:evenodd;stroke:none;display:inline"
       id="path2985-4-1-7-2"
       sodipodi:cx="83.337585"
       sodipodi:cy="210.22887"
       sodipodi:rx="20.708128"
       sodipodi:ry="20.708128"
       d="m 104.04571,210.22887 c 0,11.43678 -9.271341,20.70812 -20.708125,20.70812 -11.436783,0 -20.708128,-9.27134 -20.708128,-20.70812 0,-11.43679 9.271345,-20.70813 20.708128,-20.70813 11.436784,0 20.708125,9.27134 20.708125,20.70813 z"
       inkscape:export-filename="/home/joshua/emergenesis.png"
       inkscape:export-xdpi="98.599998"
       inkscape:export-ydpi="98.599998" />
    <path
       transform="matrix(0.59684653,0,0,0.59684653,8.802014,434.27289)"
       sodipodi:type="arc"
       style="fill:#17a0e8;fill-opacity:1;fill-rule:evenodd;stroke:none;display:inline"
       id="path2985-4-1-7-2-9"
       sodipodi:cx="83.337585"
       sodipodi:cy="210.22887"
       sodipodi:rx="20.708128"
       sodipodi:ry="20.708128"
       d="m 104.04571,210.22887 c 0,11.43678 -9.271341,20.70812 -20.708125,20.70812 -11.436783,0 -20.708128,-9.27134 -20.708128,-20.70812 0,-11.43679 9.271345,-20.70813 20.708128,-20.70813 11.436784,0 20.708125,9.27134 20.708125,20.70813 z"
       inkscape:export-filename="/home/joshua/emergenesis.png"
       inkscape:export-xdpi="98.599998"
       inkscape:export-ydpi="98.599998" />
    <path
       transform="matrix(0.59684653,0,0,0.59684653,57.846468,414.35275)"
       sodipodi:type="arc"
       style="fill:#17a0e8;fill-opacity:1;fill-rule:evenodd;stroke:none;display:inline"
       id="path2985-4-1-7-2-9-6"
       sodipodi:cx="83.337585"
       sodipodi:cy="210.22887"
       sodipodi:rx="20.708128"
       sodipodi:ry="20.708128"
       d="m 104.04571,210.22887 c 0,11.43678 -9.271341,20.70812 -20.708125,20.70812 -11.436783,0 -20.708128,-9.27134 -20.708128,-20.70812 0,-11.43679 9.271345,-20.70813 20.708128,-20.70813 11.436784,0 20.708125,9.27134 20.708125,20.70813 z"
       inkscape:export-filename="/home/joshua/emergenesis.png"
       inkscape:export-xdpi="98.599998"
       inkscape:export-ydpi="98.599998" />
    <path
       transform="matrix(0.59684653,0,0,0.59684653,-11.38773,483.58694)"
       sodipodi:type="arc"
       style="fill:#17a0e8;fill-opacity:1;fill-rule:evenodd;stroke:none;display:inline"
       id="path2985-4-1-7-2-9-6-1-5"
       sodipodi:cx="83.337585"
       sodipodi:cy="210.22887"
       sodipodi:rx="20.708128"
       sodipodi:ry="20.708128"
       d="m 104.04571,210.22887 c 0,11.43678 -9.271341,20.70812 -20.708125,20.70812 -11.436783,0 -20.708128,-9.27134 -20.708128,-20.70812 0,-11.43679 9.271345,-20.70813 20.708128,-20.70813 11.436784,0 20.708125,9.27134 20.708125,20.70813 z"
       inkscape:export-filename="/home/joshua/emergenesis.png"
       inkscape:export-xdpi="98.599998"
       inkscape:export-ydpi="98.599998" />
    <path
       transform="matrix(0.59684653,0,0,0.59684653,57.846468,554.01484)"
       sodipodi:type="arc"
       style="fill:#17a0e8;fill-opacity:1;fill-rule:evenodd;stroke:none;display:inline"
       id="path2985-4-1-7-2-9-6-1-5-2"
       sodipodi:cx="83.337585"
       sodipodi:cy="210.22887"
       sodipodi:rx="20.708128"
       sodipodi:ry="20.708128"
       d="m 104.04571,210.22887 c 0,11.43678 -9.271341,20.70812 -20.708125,20.70812 -11.436783,0 -20.708128,-9.27134 -20.708128,-20.70812 0,-11.43679 9.271345,-20.70813 20.708128,-20.70813 11.436784,0 20.708125,9.27134 20.708125,20.70813 z"
       inkscape:export-filename="/home/joshua/emergenesis.png"
       inkscape:export-xdpi="98.599998"
       inkscape:export-ydpi="98.599998" />
  </g>
  <g
     inkscape:groupmode="layer"
     id="layer8"
     inkscape:label="Inner Dots - Hidden"
     style="display:inline"
     transform="translate(-15.992444,-209.19984)">
    <path
       transform="matrix(0.32456253,0,0,0.32456253,118.0415,233.27731)"
       sodipodi:type="arc"
       style="fill:#17faba;fill-opacity:1;fill-rule:evenodd;stroke:none;display:inline"
       id="path2985-4-1-7-2-9-6-2-5-4-8"
       sodipodi:cx="83.337585"
       sodipodi:cy="210.22887"
       sodipodi:rx="20.708128"
       sodipodi:ry="20.708128"
       d="m 104.04571,210.22887 c 0,11.43678 -9.271341,20.70812 -20.708125,20.70812 -11.436783,0 -20.708128,-9.27134 -20.708128,-20.70812 0,-11.43679 9.271345,-20.70813 20.708128,-20.70813 11.436784,0 20.708125,9.27134 20.708125,20.70813 z"
       inkscape:export-filename="/home/joshua/emergenesis.png"
       inkscape:export-xdpi="98.599998"
       inkscape:export-ydpi="98.599998" />
    <path
       transform="matrix(0.32456253,0,0,0.32456253,107.30363,206.18586)"
       sodipodi:type="arc"
       style="fill:#17faba;fill-opacity:1;fill-rule:evenodd;stroke:none;display:inline"
       id="path2985-4-1-7-2-9-6-2-5"
       sodipodi:cx="83.337585"
       sodipodi:cy="210.22887"
       sodipodi:rx="20.708128"
       sodipodi:ry="20.708128"
       d="m 104.04571,210.22887 c 0,11.43678 -9.271341,20.70812 -20.708125,20.70812 -11.436783,0 -20.708128,-9.27134 -20.708128,-20.70812 0,-11.43679 9.271345,-20.70813 20.708128,-20.70813 11.436784,0 20.708125,9.27134 20.708125,20.70813 z"
       inkscape:export-filename="/home/joshua/emergenesis.png"
       inkscape:export-xdpi="98.599998"
       inkscape:export-ydpi="98.599998" />
    <path
       transform="matrix(0.32456253,0,0,0.32456253,107.33876,260.21737)"
       sodipodi:type="arc"
       style="fill:#17faba;fill-opacity:1;fill-rule:evenodd;stroke:none;display:inline"
       id="path2985-4-1-7-2-9-6-2-5-4"
       sodipodi:cx="83.337585"
       sodipodi:cy="210.22887"
       sodipodi:rx="20.708128"
       sodipodi:ry="20.708128"
       d="m 104.04571,210.22887 c 0,11.43678 -9.271341,20.70812 -20.708125,20.70812 -11.436783,0 -20.708128,-9.27134 -20.708128,-20.70812 0,-11.43679 9.271345,-20.70813 20.708128,-20.70813 11.436784,0 20.708125,9.27134 20.708125,20.70813 z"
       inkscape:export-filename="/home/joshua/emergenesis.png"
       inkscape:export-xdpi="98.599998"
       inkscape:export-ydpi="98.599998" />
  </g>
  <g
     inkscape:groupmode="layer"
     id="layer4"
     inkscape:label="Inner Dots"
     style="display:inline"
     transform="translate(-15.992444,-209.19984)">
    <path
       transform="matrix(0.32456253,0,0,0.32456253,52.764512,205.9012)"
       sodipodi:type="arc"
       style="fill:#17faba;fill-opacity:1;fill-rule:evenodd;stroke:none;display:inline"
       id="path2985-4-1-7-2-9-6-2"
       sodipodi:cx="83.337585"
       sodipodi:cy="210.22887"
       sodipodi:rx="20.708128"
       sodipodi:ry="20.708128"
       d="m 104.04571,210.22887 c 0,11.43678 -9.271341,20.70812 -20.708125,20.70812 -11.436783,0 -20.708128,-9.27134 -20.708128,-20.70812 0,-11.43679 9.271345,-20.70813 20.708128,-20.70813 11.436784,0 20.708125,9.27134 20.708125,20.70813 z"
       inkscape:export-filename="/home/joshua/emergenesis.png"
       inkscape:export-xdpi="98.599998"
       inkscape:export-ydpi="98.599998" />
    <path
       transform="matrix(0.32456253,0,0,0.32456253,52.783391,259.99771)"
       sodipodi:type="arc"
       style="fill:#17faba;fill-opacity:1;fill-rule:evenodd;stroke:none;display:inline"
       id="path2985-4-1-7-2-9-6-2-1"
       sodipodi:cx="83.337585"
       sodipodi:cy="210.22887"
       sodipodi:rx="20.708128"
       sodipodi:ry="20.708128"
       d="m 104.04571,210.22887 c 0,11.43678 -9.271341,20.70812 -20.708125,20.70812 -11.436783,0 -20.708128,-9.27134 -20.708128,-20.70812 0,-11.43679 9.271345,-20.70813 20.708128,-20.70813 11.436784,0 20.708125,9.27134 20.708125,20.70813 z"
       inkscape:export-filename="/home/joshua/emergenesis.png"
       inkscape:export-xdpi="98.599998"
       inkscape:export-ydpi="98.599998" />
    <path
       transform="matrix(0.32456253,0,0,0.32456253,41.575295,233.27731)"
       sodipodi:type="arc"
       style="fill:#17faba;fill-opacity:1;fill-rule:evenodd;stroke:none;display:inline"
       id="path2985-4-1-7-2-9-6-2-1-1"
       sodipodi:cx="83.337585"
       sodipodi:cy="210.22887"
       sodipodi:rx="20.708128"
       sodipodi:ry="20.708128"
       d="m 104.04571,210.22887 c 0,11.43678 -9.271341,20.70812 -20.708125,20.70812 -11.436783,0 -20.708128,-9.27134 -20.708128,-20.70812 0,-11.43679 9.271345,-20.70813 20.708128,-20.70813 11.436784,0 20.708125,9.27134 20.708125,20.70813 z"
       inkscape:export-filename="/home/joshua/emergenesis.png"
       inkscape:export-xdpi="98.599998"
       inkscape:export-ydpi="98.599998" />
    <path
       transform="matrix(0.32456253,0,0,0.32456253,79.74309,194.91796)"
       sodipodi:type="arc"
       style="fill:#17faba;fill-opacity:1;fill-rule:evenodd;stroke:none;display:inline"
       id="path2985-4-1-7-2-9-6-2-5-4-8-6"
       sodipodi:cx="83.337585"
       sodipodi:cy="210.22887"
       sodipodi:rx="20.708128"
       sodipodi:ry="20.708128"
       d="m 104.04571,210.22887 c 0,11.43678 -9.271341,20.70812 -20.708125,20.70812 -11.436783,0 -20.708128,-9.27134 -20.708128,-20.70812 0,-11.43679 9.271345,-20.70813 20.708128,-20.70813 11.436784,0 20.708125,9.27134 20.708125,20.70813 z"
       inkscape:export-filename="/home/joshua/emergenesis.png"
       inkscape:export-xdpi="98.599998"
       inkscape:export-ydpi="98.599998" />
    <path
       transform="matrix(0.32456253,0,0,0.32456253,79.74309,271.30879)"
       sodipodi:type="arc"
       style="fill:#17faba;fill-opacity:1;fill-rule:evenodd;stroke:none;display:inline"
       id="path2985-4-1-7-2-9-6-2-5-4-8-6-2"
       sodipodi:cx="83.337585"
       sodipodi:cy="210.22887"
       sodipodi:rx="20.708128"
       sodipodi:ry="20.708128"
       d="m 104.04571,210.22887 c 0,11.43678 -9.271341,20.70812 -20.708125,20.70812 -11.436783,0 -20.708128,-9.27134 -20.708128,-20.70812 0,-11.43679 9.271345,-20.70813 20.708128,-20.70813 11.436784,0 20.708125,9.27134 20.708125,20.70813 z"
       inkscape:export-filename="/home/joshua/emergenesis.png"
       inkscape:export-xdpi="98.599998"
       inkscape:export-ydpi="98.599998" />
  </g>
  <g
     inkscape:groupmode="layer"
     id="layer6"
     inkscape:label="Center e"
     style="display:inline"
     transform="translate(-15.992444,-209.19984)">
    <text
       xml:space="preserve"
       style="font-size:68.24733734px;font-style:normal;font-variant:normal;font-stretch:normal;text-align:start;line-height:125%;letter-spacing:0px;word-spacing:0px;writing-mode:lr-tb;text-anchor:start;fill:#00007c;fill-opacity:1;stroke:none;font-family:URW Gothic L;-inkscape-font-specification:URW Gothic L Book"
       x="85.157516"
       y="319.56943"
       id="text4380"
       sodipodi:linespacing="125%"
       inkscape:export-xdpi="98.599998"
       inkscape:export-ydpi="98.599998"
       inkscape:export-filename="/home/joshua/emergenesis.png"><tspan
         sodipodi:role="line"
         id="tspan4382"
         x="85.157516"
         y="319.56943">e</tspan></text>
  </g>
</svg>
